# xmcd
# Track frame offsets:
# 150
# 10987
# 25327
# 41567
# 54145
# 68615
# 81215
# 94537
# 106875
# 118120
#
# Disc length: 1802 seconds
# Revision: 0
# Processed by: cddbd v1.4PL0 Copyright (c) Steve Scherf et al.
# Submitted via: VisiTrax 2.9.5.180 - For more info visit www.synapsa.com
#
DISCID=7107080a
DTITLE=Arne Benoni - Here and now
DYEAR=1900
DGENRE=
TTITLE0=Best seat in town
TTITLE1=Looking for the sunshine
TTITLE2=Angel of mercy
TTITLE3=I ain't over you
TTITLE4=Letting go and holding on
TTITLE5=I'm famous
TTITLE6=Here and now
TTITLE7=Can't love without you
TTITLE8=My neck of the woods
TTITLE9=It's just a feeling
EXTD=
EXTT0=
EXTT1=
EXTT2=
EXTT3=
EXTT4=
EXTT5=
EXTT6=
EXTT7=
EXTT8=
EXTT9=
PLAYORDER=
